<svg xmlns="http://www.w3.org/2000/svg" xmlns:xlink="http://www.w3.org/1999/xlink" contentStyleType="text/css" data-diagram-type="CLASS" height="654px" preserveAspectRatio="none" style="width:468px;height:654px;background:#FFFFFF;" version="1.1" viewBox="0 0 468 654" width="468px" zoomAndPan="magnify"><defs/><g><!--class Users--><g class="entity" data-entity="Users" data-source-line="3" data-uid="ent0002" id="entity_Users"><rect fill="#F1F1F1" height="162.0781" rx="2.5" ry="2.5" style="stroke:#181818;stroke-width:0.5;" width="194.417" x="121" y="7"/><ellipse cx="172.8711" cy="23" fill="#FFAAAA" rx="11" ry="11" style="stroke:#181818;stroke-width:1;"/><path d="M173.7148,29.75 L171.2617,29.75 L171.2617,19.5 L168.1211,19.5 L168.1211,17.3594 L176.8555,17.3594 L176.8555,19.5 L173.7148,19.5 L173.7148,29.75 Z " fill="#000000"/><text fill="#000000" font-family="sans-serif" font-size="14" lengthAdjust="spacing" textLength="82.1748" x="193.3711" y="27.8467">Users Table</text><line style="stroke:#181818;stroke-width:0.5;" x1="122" x2="314.417" y1="39" y2="39"/><ellipse cx="132" cy="52.6484" fill="none" rx="3" ry="3" style="stroke:#038048;stroke-width:1;"/><text fill="#000000" font-family="sans-serif" font-size="14" lengthAdjust="spacing" textLength="105.5127" x="141" y="55.9951">id : bigint &#171;PK&#187;</text><text fill="#000000" font-family="sans-serif" font-size="14" lengthAdjust="spacing" textLength="93.5088" x="141" y="72.292">name : string</text><text fill="#000000" font-family="sans-serif" font-size="14" lengthAdjust="spacing" textLength="92.415" x="141" y="88.5889">email : string</text><text fill="#000000" font-family="sans-serif" font-size="14" lengthAdjust="spacing" textLength="120.5176" x="141" y="104.8857">password : string</text><text fill="#000000" font-family="sans-serif" font-size="14" lengthAdjust="spacing" textLength="80.4385" x="141" y="121.1826">role : enum</text><text fill="#000000" font-family="sans-serif" font-size="14" lengthAdjust="spacing" textLength="163.8369" x="141" y="137.4795">created_at : timestamp</text><text fill="#000000" font-family="sans-serif" font-size="14" lengthAdjust="spacing" textLength="168.417" x="141" y="153.7764">updated_at : timestamp</text><line style="stroke:#181818;stroke-width:0.5;" x1="122" x2="314.417" y1="161.0781" y2="161.0781"/></g><!--class Tasks--><g class="entity" data-entity="Tasks" data-source-line="13" data-uid="ent0003" id="entity_Tasks"><rect fill="#F1F1F1" height="194.6719" rx="2.5" ry="2.5" style="stroke:#181818;stroke-width:0.5;" width="200.166" x="19" y="246"/><ellipse cx="73.4346" cy="262" fill="#FFAAAA" rx="11" ry="11" style="stroke:#181818;stroke-width:1;"/><path d="M74.2783,268.75 L71.8252,268.75 L71.8252,258.5 L68.6846,258.5 L68.6846,256.3594 L77.4189,256.3594 L77.4189,258.5 L74.2783,258.5 L74.2783,268.75 Z " fill="#000000"/><text fill="#000000" font-family="sans-serif" font-size="14" lengthAdjust="spacing" textLength="82.7969" x="93.9346" y="266.8467">Tasks Table</text><line style="stroke:#181818;stroke-width:0.5;" x1="20" x2="218.166" y1="278" y2="278"/><ellipse cx="30" cy="291.6484" fill="none" rx="3" ry="3" style="stroke:#038048;stroke-width:1;"/><text fill="#000000" font-family="sans-serif" font-size="14" lengthAdjust="spacing" textLength="105.5127" x="39" y="294.9951">id : bigint &#171;PK&#187;</text><text fill="#000000" font-family="sans-serif" font-size="14" lengthAdjust="spacing" textLength="81.1768" x="39" y="311.292">title : string</text><text fill="#000000" font-family="sans-serif" font-size="14" lengthAdjust="spacing" textLength="119.335" x="39" y="327.5889">description : text</text><text fill="#000000" font-family="sans-serif" font-size="14" lengthAdjust="spacing" textLength="96.6328" x="39" y="343.8857">status : enum</text><text fill="#000000" font-family="sans-serif" font-size="14" lengthAdjust="spacing" textLength="110.127" x="39" y="360.1826">due_date : date</text><text fill="#000000" font-family="sans-serif" font-size="14" lengthAdjust="spacing" textLength="174.166" x="39" y="376.4795">assignee_id : bigint &#171;FK&#187;</text><text fill="#000000" font-family="sans-serif" font-size="14" lengthAdjust="spacing" textLength="162.5791" x="39" y="392.7764">creator_id : bigint &#171;FK&#187;</text><text fill="#000000" font-family="sans-serif" font-size="14" lengthAdjust="spacing" textLength="163.8369" x="39" y="409.0732">created_at : timestamp</text><text fill="#000000" font-family="sans-serif" font-size="14" lengthAdjust="spacing" textLength="168.417" x="39" y="425.3701">updated_at : timestamp</text><line style="stroke:#181818;stroke-width:0.5;" x1="20" x2="218.166" y1="432.6719" y2="432.6719"/></g><!--class TaskDependencies--><g class="entity" data-entity="TaskDependencies" data-source-line="25" data-uid="ent0004" id="entity_TaskDependencies"><rect fill="#F1F1F1" height="129.4844" rx="2.5" ry="2.5" style="stroke:#181818;stroke-width:0.5;" width="224.3516" x="7" y="518"/><ellipse cx="27.7441" cy="534" fill="#FFAAAA" rx="11" ry="11" style="stroke:#181818;stroke-width:1;"/><path d="M28.5878,540.75 L26.1347,540.75 L26.1347,530.5 L22.9941,530.5 L22.9941,528.3594 L31.7285,528.3594 L31.7285,530.5 L28.5878,530.5 L28.5878,540.75 Z " fill="#000000"/><text fill="#000000" font-family="sans-serif" font-size="14" lengthAdjust="spacing" textLength="179.5869" x="43.0206" y="538.8467">Task Dependencies Table</text><line style="stroke:#181818;stroke-width:0.5;" x1="8" x2="230.3516" y1="550" y2="550"/><ellipse cx="18" cy="563.6484" fill="none" rx="3" ry="3" style="stroke:#038048;stroke-width:1;"/><text fill="#000000" font-family="sans-serif" font-size="14" lengthAdjust="spacing" textLength="105.5127" x="27" y="566.9951">id : bigint &#171;PK&#187;</text><text fill="#000000" font-family="sans-serif" font-size="14" lengthAdjust="spacing" textLength="141.5928" x="27" y="583.292">task_id : bigint &#171;FK&#187;</text><text fill="#000000" font-family="sans-serif" font-size="14" lengthAdjust="spacing" textLength="198.3516" x="27" y="599.5889">dependency_id : bigint &#171;FK&#187;</text><text fill="#000000" font-family="sans-serif" font-size="14" lengthAdjust="spacing" textLength="163.8369" x="27" y="615.8857">created_at : timestamp</text><text fill="#000000" font-family="sans-serif" font-size="14" lengthAdjust="spacing" textLength="168.417" x="27" y="632.1826">updated_at : timestamp</text><line style="stroke:#181818;stroke-width:0.5;" x1="8" x2="230.3516" y1="639.4844" y2="639.4844"/></g><!--class SanctumTokens--><g class="entity" data-entity="SanctumTokens" data-source-line="33" data-uid="ent0005" id="entity_SanctumTokens"><rect fill="#F1F1F1" height="194.6719" rx="2.5" ry="2.5" style="stroke:#181818;stroke-width:0.5;" width="207.7402" x="254" y="246"/><ellipse cx="276.3252" cy="262" fill="#FFAAAA" rx="11" ry="11" style="stroke:#181818;stroke-width:1;"/><path d="M277.169,268.75 L274.7159,268.75 L274.7159,258.5 L271.5752,258.5 L271.5752,256.3594 L280.3096,256.3594 L280.3096,258.5 L277.169,258.5 L277.169,268.75 Z " fill="#000000"/><text fill="#000000" font-family="sans-serif" font-size="14" lengthAdjust="spacing" textLength="159.4619" x="291.9531" y="266.8467">Sanctum Tokens Table</text><line style="stroke:#181818;stroke-width:0.5;" x1="255" x2="460.7402" y1="278" y2="278"/><ellipse cx="265" cy="291.6484" fill="none" rx="3" ry="3" style="stroke:#038048;stroke-width:1;"/><text fill="#000000" font-family="sans-serif" font-size="14" lengthAdjust="spacing" textLength="105.5127" x="274" y="294.9951">id : bigint &#171;PK&#187;</text><text fill="#000000" font-family="sans-serif" font-size="14" lengthAdjust="spacing" textLength="181.7402" x="274" y="311.292">tokenable_id : bigint &#171;FK&#187;</text><text fill="#000000" font-family="sans-serif" font-size="14" lengthAdjust="spacing" textLength="161.6973" x="274" y="327.5889">tokenable_type : string</text><text fill="#000000" font-family="sans-serif" font-size="14" lengthAdjust="spacing" textLength="93.5088" x="274" y="343.8857">name : string</text><text fill="#000000" font-family="sans-serif" font-size="14" lengthAdjust="spacing" textLength="93.4541" x="274" y="360.1826">token : string</text><text fill="#000000" font-family="sans-serif" font-size="14" lengthAdjust="spacing" textLength="96.6602" x="274" y="376.4795">abilities : json</text><text fill="#000000" font-family="sans-serif" font-size="14" lengthAdjust="spacing" textLength="176.1211" x="274" y="392.7764">last_used_at : timestamp</text><text fill="#000000" font-family="sans-serif" font-size="14" lengthAdjust="spacing" textLength="163.8369" x="274" y="409.0732">created_at : timestamp</text><text fill="#000000" font-family="sans-serif" font-size="14" lengthAdjust="spacing" textLength="168.417" x="274" y="425.3701">updated_at : timestamp</text><line style="stroke:#181818;stroke-width:0.5;" x1="255" x2="460.7402" y1="432.6719" y2="432.6719"/></g><!--link Users to Tasks--><g class="link" data-entity-1="Users" data-entity-2="Tasks" data-source-line="46" data-uid="lnk6" id="link_Users_Tasks"><path codeLine="46" d="M132.16,169.08 C125.68,178.55 120.09,188.57 116,199 C110.27,213.61 107.8624,223.7387 107.0024,239.7187" fill="none" id="Users-to-Tasks" style="stroke:#181818;stroke-width:1;"/><polygon fill="#181818" points="106.68,245.71,111.1579,236.938,106.9487,240.7172,103.1694,236.508,106.68,245.71" style="stroke:#181818;stroke-width:1;"/><text fill="#000000" font-family="sans-serif" font-size="13" lengthAdjust="spacing" textLength="57.8652" x="117" y="212.0669">assigned</text><text fill="#000000" font-family="sans-serif" font-size="13" lengthAdjust="spacing" textLength="8.271" x="116.1521" y="189.0385">1</text><text fill="#000000" font-family="sans-serif" font-size="13" lengthAdjust="spacing" textLength="23.0356" x="81.9259" y="235.0616">0..*</text></g><!--link Users to Tasks--><g class="link" data-entity-1="Users" data-entity-2="Tasks" data-source-line="47" data-uid="lnk7" id="link_Users_Tasks"><path codeLine="47" d="M195.3,169.21 C190.33,184.87 184.8,201.06 179,216 C175.22,225.74 173.4253,230.2876 169.0453,240.2476" fill="none" id="Users-to-Tasks-1" style="stroke:#181818;stroke-width:1;"/><polygon fill="#181818" points="166.63,245.74,173.9146,239.1116,168.6428,241.163,166.5914,235.8912,166.63,245.74" style="stroke:#181818;stroke-width:1;"/><text fill="#000000" font-family="sans-serif" font-size="13" lengthAdjust="spacing" textLength="48.3247" x="186" y="212.0669">creates</text><text fill="#000000" font-family="sans-serif" font-size="13" lengthAdjust="spacing" textLength="8.271" x="184.9155" y="189.1801">1</text><text fill="#000000" font-family="sans-serif" font-size="13" lengthAdjust="spacing" textLength="23.0356" x="146.2785" y="235.0938">0..*</text></g><!--link Tasks to TaskDependencies--><g class="link" data-entity-1="Tasks" data-entity-2="TaskDependencies" data-source-line="48" data-uid="lnk8" id="link_Tasks_TaskDependencies"><path codeLine="48" d="M119,441.24 C119,467.09 119,488.38 119,511.94" fill="none" id="Tasks-to-TaskDependencies" style="stroke:#181818;stroke-width:1;"/><polygon fill="#181818" points="119,517.94,123,508.94,119,512.94,115,508.94,119,517.94" style="stroke:#181818;stroke-width:1;"/><text fill="#000000" font-family="sans-serif" font-size="13" lengthAdjust="spacing" textLength="76.0894" x="120" y="484.0669">depends on</text><text fill="#000000" font-family="sans-serif" font-size="13" lengthAdjust="spacing" textLength="8.271" x="110.7224" y="460.7228">1</text><text fill="#000000" font-family="sans-serif" font-size="13" lengthAdjust="spacing" textLength="23.0356" x="94.7249" y="507.1061">0..*</text></g><!--link Users to SanctumTokens--><g class="link" data-entity-1="Users" data-entity-2="SanctumTokens" data-source-line="49" data-uid="lnk9" id="link_Users_SanctumTokens"><path codeLine="49" d="M262.3,169.21 C275.76,193.58 287.7908,215.357 301.7708,240.687" fill="none" id="Users-to-SanctumTokens" style="stroke:#181818;stroke-width:1;"/><polygon fill="#181818" points="304.67,245.94,303.8232,236.1276,302.254,241.5625,296.8191,239.9933,304.67,245.94" style="stroke:#181818;stroke-width:1;"/><text fill="#000000" font-family="sans-serif" font-size="13" lengthAdjust="spacing" textLength="22.9785" x="289" y="212.0669">has</text><text fill="#000000" font-family="sans-serif" font-size="13" lengthAdjust="spacing" textLength="8.271" x="257.8827" y="189.1801">1</text><text fill="#000000" font-family="sans-serif" font-size="13" lengthAdjust="spacing" textLength="23.0356" x="276.7178" y="234.9809">0..*</text></g><!--SRC=[hLDBIyD04BxdLuphGQjjqMie1K5wyI8Qps6R7TknoIPaDcWH_xkpsOOs4aefxcMORrxVFFR2u3jPX4GlSxoski2nGSv6aEMQ6Jm0ca5vKC5i1jV9-7AnU90tWlayYaBW6sFDOr2j3CdK2BuZW5io4CEILcITn3y_IH24l36mgyckHCT2Ktu8L5BziwpD8LQNkGz2snIYPJLgXoRLJZ171RBJHIM6fZ93Xf-EQw9vuxcsyWIkZbpU8-jdKLFbgBI-0duv0QM8QtXFppIOUXw2U268T4GhYvZsgon2bRQTiZvYFBVNHwpG6hGPOTSs76AdZ41YXfcPBj7sdvc_QfkvfaZA3LfFUwT304xXx1szrp2nlTbjgzvw_zvcwta8w2NbvFpaOlZWqWeadyMb3GyrUiO4hk05S-tlYzTKSHH-bRfNC9dCGTrDfpSAmld6tLcPurw11KT17t3gNKIysok3T3UOjxSUyLzh_WK0]--></g></svg>